<svg id="visual" viewBox="0 0 900 600" width="900" height="600" xmlns="http://www.w3.org/2000/svg" xmlns:xlink="http://www.w3.org/1999/xlink" version="1.1"><rect x="0" y="0" width="900" height="600" fill="#001220"></rect><defs><linearGradient id="grad1_0" x1="33.3%" y1="0%" x2="100%" y2="100%"><stop offset="20%" stop-color="#fbae3c" stop-opacity="1"></stop><stop offset="80%" stop-color="#fbae3c" stop-opacity="1"></stop></linearGradient></defs><defs><linearGradient id="grad1_1" x1="33.3%" y1="0%" x2="100%" y2="100%"><stop offset="20%" stop-color="#fbae3c" stop-opacity="1"></stop><stop offset="80%" stop-color="#eb7458" stop-opacity="1"></stop></linearGradient></defs><defs><linearGradient id="grad1_2" x1="33.3%" y1="0%" x2="100%" y2="100%"><stop offset="20%" stop-color="#b84e6c" stop-opacity="1"></stop><stop offset="80%" stop-color="#eb7458" stop-opacity="1"></stop></linearGradient></defs><defs><linearGradient id="grad1_3" x1="33.3%" y1="0%" x2="100%" y2="100%"><stop offset="20%" stop-color="#b84e6c" stop-opacity="1"></stop><stop offset="80%" stop-color="#713c69" stop-opacity="1"></stop></linearGradient></defs><defs><linearGradient id="grad1_4" x1="33.3%" y1="0%" x2="100%" y2="100%"><stop offset="20%" stop-color="#2d2b4c" stop-opacity="1"></stop><stop offset="80%" stop-color="#713c69" stop-opacity="1"></stop></linearGradient></defs><defs><linearGradient id="grad1_5" x1="33.3%" y1="0%" x2="100%" y2="100%"><stop offset="20%" stop-color="#2d2b4c" stop-opacity="1"></stop><stop offset="80%" stop-color="#001220" stop-opacity="1"></stop></linearGradient></defs><defs><linearGradient id="grad2_0" x1="0%" y1="0%" x2="66.7%" y2="100%"><stop offset="20%" stop-color="#fbae3c" stop-opacity="1"></stop><stop offset="80%" stop-color="#fbae3c" stop-opacity="1"></stop></linearGradient></defs><defs><linearGradient id="grad2_1" x1="0%" y1="0%" x2="66.7%" y2="100%"><stop offset="20%" stop-color="#eb7458" stop-opacity="1"></stop><stop offset="80%" stop-color="#fbae3c" stop-opacity="1"></stop></linearGradient></defs><defs><linearGradient id="grad2_2" x1="0%" y1="0%" x2="66.7%" y2="100%"><stop offset="20%" stop-color="#eb7458" stop-opacity="1"></stop><stop offset="80%" stop-color="#b84e6c" stop-opacity="1"></stop></linearGradient></defs><defs><linearGradient id="grad2_3" x1="0%" y1="0%" x2="66.7%" y2="100%"><stop offset="20%" stop-color="#713c69" stop-opacity="1"></stop><stop offset="80%" stop-color="#b84e6c" stop-opacity="1"></stop></linearGradient></defs><defs><linearGradient id="grad2_4" x1="0%" y1="0%" x2="66.7%" y2="100%"><stop offset="20%" stop-color="#713c69" stop-opacity="1"></stop><stop offset="80%" stop-color="#2d2b4c" stop-opacity="1"></stop></linearGradient></defs><defs><linearGradient id="grad2_5" x1="0%" y1="0%" x2="66.7%" y2="100%"><stop offset="20%" stop-color="#001220" stop-opacity="1"></stop><stop offset="80%" stop-color="#2d2b4c" stop-opacity="1"></stop></linearGradient></defs><g transform="translate(900, 0)"><path d="M0 486.7C-54.2 462.5 -108.5 438.2 -174.1 420.4C-239.8 402.5 -316.8 391.2 -344.2 344.2C-371.6 297.2 -349.4 214.5 -364.9 151.2C-380.4 87.9 -433.6 43.9 -486.7 0L0 0Z" fill="#131f37"></path><path d="M0 405.6C-45.2 385.4 -90.4 365.2 -145.1 350.3C-199.8 335.5 -264 326 -286.8 286.8C-309.7 247.6 -291.2 178.7 -304.1 126C-317 73.2 -361.3 36.6 -405.6 0L0 0Z" fill="#4d345e"></path><path d="M0 324.5C-36.2 308.3 -72.3 292.1 -116.1 280.2C-159.8 268.4 -211.2 260.8 -229.5 229.5C-247.7 198.1 -233 143 -243.3 100.8C-253.6 58.6 -289.1 29.3 -324.5 0L0 0Z" fill="#96446e"></path><path d="M0 243.4C-27.1 231.2 -54.2 219.1 -87.1 210.2C-119.9 201.3 -158.4 195.6 -172.1 172.1C-185.8 148.6 -174.7 107.2 -182.5 75.6C-190.2 43.9 -216.8 22 -243.4 0L0 0Z" fill="#d55e64"></path><path d="M0 162.2C-18.1 154.2 -36.2 146.1 -58 140.1C-79.9 134.2 -105.6 130.4 -114.7 114.7C-123.9 99.1 -116.5 71.5 -121.6 50.4C-126.8 29.3 -144.5 14.6 -162.2 0L0 0Z" fill="#f88f4a"></path><path d="M0 81.1C-9 77.1 -18.1 73 -29 70.1C-40 67.1 -52.8 65.2 -57.4 57.4C-61.9 49.5 -58.2 35.7 -60.8 25.2C-63.4 14.6 -72.3 7.3 -81.1 0L0 0Z" fill="#fbae3c"></path></g><g transform="translate(0, 600)"><path d="M0 -486.7C57.5 -464.6 115 -442.5 174.9 -422.2C234.8 -401.9 297.1 -383.4 344.2 -344.2C391.3 -304.9 423.2 -244.9 444.4 -184.1C465.6 -123.2 476.2 -61.6 486.7 0L0 0Z" fill="#131f37"></path><path d="M0 -405.6C47.9 -387.2 95.8 -368.8 145.7 -351.8C195.7 -334.9 247.6 -319.5 286.8 -286.8C326.1 -254.1 352.6 -204.1 370.3 -153.4C388 -102.7 396.8 -51.4 405.6 0L0 0Z" fill="#4d345e"></path><path d="M0 -324.5C38.3 -309.8 76.7 -295 116.6 -281.5C156.5 -267.9 198.1 -255.6 229.5 -229.5C260.9 -203.3 282.1 -163.3 296.3 -122.7C310.4 -82.2 317.5 -41.1 324.5 0L0 0Z" fill="#96446e"></path><path d="M0 -243.4C28.7 -232.3 57.5 -221.3 87.4 -211.1C117.4 -201 148.5 -191.7 172.1 -172.1C195.6 -152.5 211.6 -122.4 222.2 -92C232.8 -61.6 238.1 -30.8 243.4 0L0 0Z" fill="#d55e64"></path><path d="M0 -162.2C19.2 -154.9 38.3 -147.5 58.3 -140.7C78.3 -134 99 -127.8 114.7 -114.7C130.4 -101.6 141.1 -81.6 148.1 -61.4C155.2 -41.1 158.7 -20.5 162.2 0L0 0Z" fill="#f88f4a"></path><path d="M0 -81.1C9.6 -77.4 19.2 -73.8 29.1 -70.4C39.1 -67 49.5 -63.9 57.4 -57.4C65.2 -50.8 70.5 -40.8 74.1 -30.7C77.6 -20.5 79.4 -10.3 81.1 0L0 0Z" fill="#fbae3c"></path></g></svg>